<svg width="75" height="75" viewBox="0 0 75 75" fill="none" xmlns="http://www.w3.org/2000/svg">
<path d="M75 2.61717V0H72.3828C60.847 0 49.9388 2.72824 40.2476 7.54732C39.3204 8.00605 38.4126 8.49376 37.5097 8.99595C36.6019 8.49376 35.6844 8.01088 34.7524 7.54732C25.0612 2.72341 14.1579 0 2.61718 0H0V2.61717C0 14.153 2.72824 25.0611 7.54732 34.7524C8.00605 35.6795 8.49859 36.5874 9.00078 37.4855C8.49859 38.3933 8.01088 39.3156 7.54732 40.2475C2.72341 49.9388 0 60.8421 0 72.3828V75H2.61718C14.153 75 25.0612 72.2718 34.7524 67.4527C35.6796 66.9939 36.5874 66.5014 37.4855 65.9992C38.3933 66.5014 39.3156 66.9891 40.2476 67.4527C49.9388 72.2766 60.8421 75 72.3828 75H75V72.3828C75 60.8469 72.2718 49.9388 67.4527 40.2475C66.994 39.3204 66.5063 38.4126 66.0041 37.5097C66.5063 36.6018 66.9891 35.6844 67.4527 34.7524C72.2766 25.0611 75 14.1579 75 2.61717ZM64.1257 45.4577C67.4141 52.9375 69.3794 61.1174 69.7174 69.7174C61.1222 69.3793 52.9375 67.414 45.4578 64.1257C41.8072 62.5225 38.3306 60.5959 35.0518 58.394C27.7701 53.5073 21.4976 47.2347 16.6109 39.953C15.6258 41.6431 14.718 43.3862 13.8826 45.168C18.3396 51.2812 23.7236 56.6652 29.8368 61.1222C30.6384 61.7065 31.4544 62.2763 32.285 62.8316C31.382 63.2806 30.4742 63.7201 29.5471 64.1257C22.0673 67.414 13.8875 69.3793 5.28748 69.7174C5.62549 61.1222 7.59078 52.9375 10.8792 45.4577C12.4823 41.8072 14.409 38.3305 16.6109 35.0518C21.4976 27.7701 27.7701 21.4975 35.0518 16.6108C33.3618 15.6258 31.6186 14.718 29.8368 13.8826C23.7236 18.3396 18.3396 23.7236 13.8826 29.8368C13.2984 30.6383 12.7286 31.4544 12.1733 32.285C11.7242 31.382 11.2848 30.4742 10.8792 29.5471C7.59078 22.0673 5.62549 13.8874 5.28748 5.28745C13.8826 5.62546 22.0673 7.59076 29.5471 10.8791C33.1976 12.4823 36.6743 14.4089 39.953 16.6108C47.2347 21.4975 53.5073 27.7701 58.394 35.0518C59.379 33.3618 60.2868 31.6186 61.1222 29.8368C56.6653 23.7236 51.2812 18.3396 45.168 13.8826C44.3616 13.2935 43.5456 12.7237 42.715 12.1732C43.618 11.7242 44.5307 11.2896 45.4578 10.884C52.9375 7.5956 61.1174 5.63029 69.7174 5.29228C69.3794 13.8874 67.4141 22.0721 64.1257 29.5519C62.5225 33.2024 60.5959 36.6791 58.394 39.9578C53.5073 47.2396 47.2347 53.5121 39.953 58.3988C41.6431 59.3839 43.3862 60.2916 45.168 61.127C51.2812 56.6701 56.6653 51.286 61.1222 45.1729C61.7113 44.3665 62.2811 43.5504 62.8316 42.7199C63.2807 43.6228 63.7152 44.5355 64.1208 45.4626L64.1257 45.4577Z" fill="#8FA8BD"/>
</svg>
