<svg width="19" height="19" viewBox="0 0 19 19" fill="none" xmlns="http://www.w3.org/2000/svg">
<path d="M11.3559 12.2731V12.2713C11.4191 12.1834 11.3998 12.0604 11.3119 11.9971L9.08477 10.387V6.50571C9.08652 6.39673 8.99688 6.30884 8.88965 6.30884H8.12852C8.01953 6.30884 7.93164 6.39673 7.93164 6.50571V10.8651C7.93164 10.9284 7.96152 10.9864 8.0125 11.0233L10.6299 12.9323C10.7178 12.9956 10.8408 12.978 10.9041 12.8901L11.3559 12.2731ZM11.3559 12.2731L11.3535 12.2713L11.2117 12.1676L11.2117 12.1675L11.197 12.1568L11.1967 12.1565L10.9524 11.9777L10.9509 11.9798L10.9376 11.998C10.9415 11.9916 10.9457 11.9854 10.9501 11.9792L10.8753 12.0831L10.7722 12.2239M11.3559 12.2731H11.1132H11.1124H10.9164C10.9371 12.3228 10.9714 12.3679 11.019 12.4023L10.7722 12.2239M10.7722 12.2239L8.79182 10.7922L8.58477 10.6425V10.387V6.80884M10.7722 12.2239L10.6799 12.3499L8.43164 10.7101V6.80884M8.58477 6.80884H8.88965C8.72777 6.80884 8.58631 6.67957 8.5848 6.50571C8.58478 6.50304 8.58479 6.50035 8.58483 6.49765L8.58477 6.49765V6.50571V6.80884ZM8.58477 6.80884H8.43164M8.43164 6.80884V6.50571C8.43164 6.67287 8.29567 6.80884 8.12852 6.80884H8.43164ZM12.9703 8.50708V8.38208H16.7516V8.50708H12.9703ZM12.9703 10.8977V10.7727H14.3961V10.8977H12.9703Z" fill="#CFDDE8" stroke="#CFDDE8"/>
<path d="M14.791 12.7196C14.8455 12.6124 14.7664 12.4858 14.6469 12.4858H13.6309C13.5324 12.4858 13.4393 12.5368 13.3865 12.6211C13.1633 12.9745 12.9031 13.3014 12.6043 13.6002C12.0893 14.1153 11.4899 14.5196 10.8236 14.8008L14.791 12.7196ZM8.64396 15.7403C9.46598 15.7403 10.2652 15.5795 11.0181 15.2615C11.7443 14.9549 12.3976 14.5141 12.9579 13.9538C13.2555 13.6561 13.5179 13.3328 13.7463 12.9858H14.0702C12.9234 14.8428 10.8872 16.0129 8.6422 16.0129C5.11635 16.0129 2.25912 13.1522 2.26564 9.62676C2.27215 6.11011 5.19964 3.22458 8.72033 3.26856L8.72082 3.26857C10.9346 3.29407 12.9364 4.45962 14.07 6.29399H13.7463C13.5179 5.94699 13.2555 5.62367 12.9579 5.32599C12.3977 4.76586 11.7446 4.32509 11.0186 4.01854C10.267 3.70025 9.46762 3.5395 8.64396 3.5395C7.82223 3.5395 7.02116 3.70018 6.26955 4.01843C5.54348 4.32499 4.89025 4.76579 4.33005 5.32599C3.76979 5.88625 3.32895 6.53957 3.02239 7.26574C2.70439 8.01861 2.54357 8.81603 2.54357 9.63989C2.54357 10.4635 2.70428 11.2628 3.02249 12.0143C3.32905 12.7404 3.76986 13.3936 4.33005 13.9538C4.89031 14.5141 5.54363 14.9549 6.26981 15.2615C7.02127 15.5796 7.82048 15.7403 8.64396 15.7403ZM14.3453 12.4931L14.3442 12.4952L14.3453 12.4931Z" fill="#CFDDE8" stroke="#CFDDE8"/>
</svg>
