<svg width="40" height="40" viewBox="0 0 512 512" fill="none" xmlns="http://www.w3.org/2000/svg">
<g clip-path="url(#clip0_1877_1659)">
<path d="M428.715 115.285L354.368 40.9385C328.171 14.7412 293.355 0.319824 256.32 0.319824H138.667C85.7386 0.319824 42.6666 43.3705 42.6666 96.3198V416.32C42.6666 469.248 85.7386 512.32 138.667 512.32H373.333C426.261 512.32 469.333 469.248 469.333 416.32V213.333C469.333 176.298 454.912 141.482 428.715 115.285ZM413.632 130.368C425.387 142.122 434.325 155.925 440.149 170.986H330.667C313.024 170.986 298.667 156.629 298.667 138.986V29.4825C313.728 35.3065 327.531 44.2452 339.285 55.9998L413.632 130.368ZM448 416.32C448 457.493 414.507 490.987 373.333 490.987H138.667C97.4933 490.987 64 457.493 64 416.32V96.3198C64 55.1465 97.4933 21.6532 138.667 21.6532H256.32C263.445 21.6532 270.464 22.2932 277.333 23.5305V138.986C277.333 168.384 301.269 192.32 330.667 192.32H446.123C447.36 199.189 448 206.208 448 213.333V416.32ZM158.955 319.552C152.747 325.76 149.333 333.995 149.333 342.763C149.333 351.531 152.747 359.765 158.955 365.973L220.885 427.904C225.045 432.064 225.045 438.827 220.885 442.987C218.795 445.077 216.064 446.101 213.333 446.101C210.603 446.101 207.872 445.056 205.781 442.987L143.851 381.056C133.632 370.837 127.979 357.227 127.979 342.763C127.979 328.299 133.611 314.688 143.851 304.469L205.781 242.539C209.941 238.379 216.704 238.379 220.864 242.539C225.024 246.699 225.024 253.461 220.864 257.621L158.933 319.552H158.955ZM368.149 304.469C378.368 314.688 384.021 328.299 384.021 342.763C384.021 357.227 378.389 370.837 368.149 381.056L306.219 442.987C304.128 445.077 301.397 446.101 298.667 446.101C295.936 446.101 293.205 445.056 291.115 442.987C286.955 438.827 286.955 432.064 291.115 427.904L353.045 365.973C359.253 359.765 362.667 351.531 362.667 342.763C362.667 333.995 359.253 325.738 353.045 319.552L291.115 257.621C286.955 253.461 286.955 246.699 291.115 242.539C295.275 238.379 302.037 238.379 306.197 242.539L368.149 304.469Z" fill="#1EEBB4"/>
</g>
<defs>
<clipPath id="clip0_1877_1659">
<rect width="512" height="512" fill="white"/>
</clipPath>
</defs>
</svg>
