<svg width="40" height="40" viewBox="0 0 512 512" fill="none" xmlns="http://www.w3.org/2000/svg">
<g clip-path="url(#clip0_1877_1663)">
<path d="M142.315 247.851C132.992 238.677 128.043 226.88 128 214.272C127.957 201.664 132.843 189.824 141.76 180.928L195.392 130.859C199.723 126.848 206.443 127.083 210.475 131.371C214.485 135.68 214.251 142.443 209.963 146.453L156.587 196.245C152 200.853 149.333 207.317 149.355 214.165C149.355 221.035 152.085 227.477 156.971 232.299L209.835 280.043C214.208 283.989 214.549 290.731 210.603 295.104C208.491 297.429 205.589 298.624 202.688 298.624C200.128 298.624 197.568 297.728 195.541 295.872L142.336 247.808L142.315 247.851ZM355.179 196.011C360.043 200.875 362.709 207.339 362.688 214.208C362.688 221.077 359.957 227.52 355.413 232.021L302.208 280.085C297.835 284.032 297.493 290.773 301.44 295.147C303.552 297.472 306.453 298.667 309.355 298.667C311.915 298.667 314.475 297.771 316.501 295.915L370.048 247.509C379.008 238.656 383.979 226.859 384.021 214.251C384.064 201.643 379.179 189.803 370.005 180.651L316.629 130.859C312.299 126.848 305.579 127.104 301.547 131.371C297.536 135.68 297.771 142.443 302.059 146.453L355.179 196.011ZM512.021 394.667C512.021 424.064 488.085 448 458.688 448H53.3333C23.936 448 0 424.064 0 394.667C0 368.917 18.3467 347.371 42.6667 342.4V160C42.6667 107.072 85.7387 64 138.667 64H373.333C426.261 64 469.333 107.072 469.333 160V342.4C493.653 347.349 512.021 368.896 512.021 394.667ZM64 160V341.333H181.333C184.171 341.333 186.88 342.464 188.885 344.448L207.104 362.667H304.939L323.157 344.448C325.163 342.443 327.872 341.333 330.709 341.333H448.043V160C448.043 118.827 414.549 85.3333 373.376 85.3333H138.667C97.4933 85.3333 64 118.827 64 160ZM490.667 394.667C490.667 377.024 476.309 362.667 458.667 362.667H335.083L316.864 380.885C314.859 382.891 312.149 384 309.312 384H202.645C199.808 384 197.099 382.869 195.093 380.885L176.875 362.667H53.3333C35.6907 362.667 21.3333 377.024 21.3333 394.667C21.3333 412.309 35.6907 426.667 53.3333 426.667H458.667C476.309 426.667 490.667 412.309 490.667 394.667Z" fill="#1EEBB4"/>
</g>
<defs>
<clipPath id="clip0_1877_1663">
<rect width="512" height="512" fill="white"/>
</clipPath>
</defs>
</svg>
