<svg width="60" height="75" viewBox="0 0 60 75" fill="none" xmlns="http://www.w3.org/2000/svg">
<path d="M24.0736 35.5142C21.2589 38.3289 16.68 38.3289 13.8653 35.5142L4.89807 26.5514V11.8262L24.5967 31.5248L28.0629 28.0629L0 0V50.2261L21.2234 71.4495C23.5106 73.7367 26.5559 75 29.7917 75C33.0275 75 36.0727 73.7411 38.3599 71.4495L59.2908 50.5186V0.319149L24.0736 35.5142ZM34.8981 67.9876C33.5328 69.3528 31.7199 70.102 29.7917 70.102C27.8635 70.102 26.0505 69.3528 24.6853 67.9876L4.89807 48.2004V33.4796L32.0479 60.6294C32.3183 60.8998 32.602 61.1525 32.8901 61.3918C32.9699 61.4583 33.0497 61.516 33.1295 61.578C33.3555 61.7553 33.586 61.9282 33.8209 62.0878C33.9007 62.141 33.9761 62.1942 34.0559 62.2429C34.3307 62.4202 34.6144 62.5887 34.9025 62.7438C34.938 62.7615 34.969 62.7793 35 62.797C36.0239 63.3333 37.1144 63.7145 38.2536 63.9362C38.2846 63.9406 38.3112 63.945 38.3422 63.9539C38.5062 63.9849 38.6658 64.0204 38.8298 64.047L34.8892 67.9876H34.8981ZM54.3927 33.7722V48.4929C54.3927 48.4929 45.3635 57.5 45.1773 57.6551C45.1552 57.6729 45.133 57.6862 45.1108 57.7039C42.6729 59.6454 39.2598 59.7828 36.6844 58.1073C36.6711 58.0984 36.6578 58.094 36.6445 58.0851C36.4805 57.9743 36.3209 57.8546 36.1614 57.7305C36.1259 57.7039 36.0904 57.6817 36.0594 57.6551C35.8777 57.5089 35.7048 57.3493 35.5364 57.1853C35.5275 57.1764 35.523 57.172 35.5142 57.1676L31.5736 53.227C31.6977 53.2092 31.8174 53.1782 31.9371 53.1605C32.0656 53.1383 32.1986 53.1161 32.3271 53.0895C32.5842 53.0364 32.8369 52.9699 33.0895 52.8989C33.1871 52.8723 33.2846 52.8502 33.3821 52.8192C33.7234 52.7128 34.0647 52.5931 34.3927 52.4557C34.4681 52.4246 34.539 52.3892 34.6144 52.3537C34.8715 52.2429 35.1285 52.1232 35.3768 51.9947C35.4876 51.9371 35.5984 51.875 35.7092 51.8129C35.9176 51.6933 36.1259 51.5692 36.3298 51.4406C36.4406 51.3697 36.5514 51.2988 36.6578 51.2234C36.8661 51.0816 37.0656 50.9264 37.2651 50.7713C37.3582 50.7004 37.4468 50.6294 37.5399 50.5585C37.8236 50.3236 38.0984 50.0754 38.3599 49.8138L54.3883 33.7855L54.3927 33.7722ZM34.8981 46.3387C33.5328 47.7039 31.7199 48.453 29.7917 48.453C27.8635 48.453 26.0505 47.7039 24.6853 46.3387L20.7403 42.3936C23.227 42.0301 25.625 40.891 27.5355 38.9805L54.3883 12.1454V26.8484L34.8936 46.3431L34.8981 46.3387Z" fill="#8FA8BD"/>
</svg>
