<svg width="76" height="75" viewBox="0 0 76 75" fill="none" xmlns="http://www.w3.org/2000/svg">
<path d="M34.1045 29.7511C35.9291 30.7852 37.6671 32.02 39.2793 33.471C37.325 20.18 25.8468 9.94434 12.021 9.94434V14.0929C22.2134 14.0929 30.8997 20.644 34.1045 29.7511Z" fill="#8FA8BD"/>
<path d="M40.9034 45.2649C39.0631 44.219 37.325 42.9724 35.7246 41.5293C37.6789 54.8203 49.1572 65.0559 62.9829 65.0559V60.9074C52.7984 60.9074 44.116 54.3642 40.9034 45.2649Z" fill="#8FA8BD"/>
<path d="M41.5288 39.2788C54.8198 37.3245 65.0554 25.8463 65.0554 12.0205H60.9069C60.9069 22.2129 54.3558 30.8992 45.2487 34.104C44.2145 35.9286 42.9798 37.6666 41.5288 39.2788Z" fill="#8FA8BD"/>
<path d="M33.4754 35.7246C20.1844 37.6789 9.94873 49.1572 9.94873 62.9829H14.0973C14.0973 52.7906 20.6484 44.1042 29.7555 40.8994C30.7896 39.0749 32.0244 37.3368 33.4754 35.7246Z" fill="#8FA8BD"/>
<path d="M40.5769 29.6177C41.1353 31.6389 41.4892 33.7426 41.6072 35.9093C49.6211 25.1271 48.7442 9.77557 38.9686 0L36.0352 2.93346C43.243 10.1413 44.7529 20.9117 40.5769 29.6216V29.6177Z" fill="#8FA8BD"/>
<path d="M34.4267 45.3824C33.8683 43.3612 33.5144 41.2575 33.3964 39.0908C25.3825 49.873 26.2594 65.2245 36.0349 75.0001L38.9684 72.0666C31.7606 64.8588 30.2506 54.0884 34.4267 45.3785V45.3824Z" fill="#8FA8BD"/>
<path d="M45.3662 40.5809C43.349 41.1353 41.2492 41.4892 39.0864 41.6033C43.8091 45.1266 49.5187 47.0337 55.5193 47.0337C62.8805 47.0337 69.8012 44.1671 75.0036 38.9608L72.0701 36.0273C67.6503 40.4472 61.7716 42.8812 55.5193 42.8812C51.9449 42.8812 48.4924 42.083 45.3662 40.573V40.5809Z" fill="#8FA8BD"/>
<path d="M29.6177 34.4267C31.6389 33.8683 33.7426 33.5144 35.9093 33.3964C25.1271 25.3825 9.77557 26.2594 0 36.035L2.93346 38.9684C10.1413 31.7606 20.9117 30.2506 29.6216 34.4267H29.6177Z" fill="#8FA8BD"/>
</svg>
