<svg width="79" height="75" viewBox="0 0 79 75" fill="none" xmlns="http://www.w3.org/2000/svg">
<path d="M58.9318 39.1523L39.1564 58.9278L19.377 39.1523H13.7686L39.1564 64.5363L64.5403 39.1523H58.9318Z" fill="#8FA8BD"/>
<path d="M64.5403 35.8478L39.1564 10.4639L13.7686 35.8478H19.377L39.1564 16.0723L58.9318 35.8478H64.5403Z" fill="#8FA8BD"/>
<path d="M24.2324 37.5004L39.1528 52.4207L54.0731 37.5004L39.1528 22.5801L24.2324 37.5004ZM39.1528 46.8123L29.8409 37.5004L39.1528 28.1885L48.4647 37.5004L39.1528 46.8123Z" fill="#8FA8BD"/>
<path d="M37.504 5.60448V0L0 37.5L37.504 75V69.3916L5.60845 37.5L37.504 5.60448Z" fill="#8FA8BD"/>
<path d="M40.8052 0V5.60448L72.7007 37.5L40.8052 69.3916V75L78.3091 37.5L40.8052 0Z" fill="#8FA8BD"/>
</svg>
