<svg width="92" height="75" viewBox="0 0 92 75" fill="none" xmlns="http://www.w3.org/2000/svg">
<path d="M50.3051 28.9604L47.1548 32.1149L52.5399 37.5L29.4223 60.6175L6.3048 37.5L29.4223 14.3824L34.3455 19.3056L24.2328 29.4223L30.7332 35.9227L33.8877 32.7724L30.5376 29.4223L37.5 22.46L40.85 25.8101L44.0003 22.6556L40.6503 19.3056L53.6552 6.3048L57.0053 9.65486L60.1556 6.50039L53.6552 0L37.5 16.1552L29.4223 8.07762L0 37.5L29.4223 66.9223L58.8447 37.5L50.3051 28.9604Z" fill="#8FA8BD"/>
<path d="M91.1556 37.5005L61.7333 8.07812L32.3109 37.5005L40.8504 46.0359L44.0008 42.8856L38.6157 37.5005L61.7333 14.3829L84.8508 37.5005L61.7333 60.618L56.8059 55.6907L66.9227 45.5781L60.4223 39.0777L57.2679 42.228L60.6179 45.5781L53.6556 52.5404L50.3056 49.1903L47.1552 52.3407L50.5011 55.6907L37.5004 68.6956L34.1503 65.3456L31 68.5001L37.5004 75.0004L53.6556 58.8452L61.7333 66.9228L91.1556 37.5005Z" fill="#8FA8BD"/>
</svg>
