<svg width="40" height="40" viewBox="0 0 512 512" fill="none" xmlns="http://www.w3.org/2000/svg">
<g clip-path="url(#clip0_1877_1657)">
<path d="M416 42.6665H96C43.072 42.6665 0 85.7385 0 138.667V373.333C0 426.261 43.072 469.333 96 469.333H416C468.928 469.333 512 426.261 512 373.333V138.667C512 85.7385 468.928 42.6665 416 42.6665ZM21.3333 373.333V138.667C21.3333 97.4932 54.8267 63.9998 96 63.9998H170.667V448H96C54.8267 448 21.3333 414.507 21.3333 373.333ZM490.667 373.333C490.667 414.507 457.173 448 416 448H192V63.9998H416C457.173 63.9998 490.667 97.4932 490.667 138.667V373.333ZM128 224C128 229.888 123.221 234.667 117.333 234.667H74.6667C68.7787 234.667 64 229.888 64 224C64 218.112 68.7787 213.333 74.6667 213.333H117.333C123.221 213.333 128 218.112 128 224ZM128 309.333C128 315.221 123.221 320 117.333 320H74.6667C68.7787 320 64 315.221 64 309.333C64 303.445 68.7787 298.667 74.6667 298.667H117.333C123.221 298.667 128 303.445 128 309.333ZM64 138.667C64 132.779 68.7787 128 74.6667 128H117.333C123.221 128 128 132.779 128 138.667C128 144.555 123.221 149.333 117.333 149.333H74.6667C68.7787 149.333 64 144.555 64 138.667Z" fill="#1EEBB4"/>
</g>
<defs>
<clipPath id="clip0_1877_1657">
<rect width="512" height="512" fill="white"/>
</clipPath>
</defs>
</svg>
