<svg width="40" height="40" viewBox="0 0 512 512" fill="none" xmlns="http://www.w3.org/2000/svg">
<g clip-path="url(#clip0_1877_1670)">
<path d="M416 512C410.112 512 405.333 507.221 405.333 501.333V437.333C405.333 431.445 410.112 426.667 416 426.667C421.888 426.667 426.667 431.445 426.667 437.333V501.333C426.667 507.221 421.888 512 416 512ZM330.667 512C324.779 512 320 507.221 320 501.333V437.333C320 431.445 324.779 426.667 330.667 426.667C336.555 426.667 341.333 431.445 341.333 437.333V501.333C341.333 507.221 336.555 512 330.667 512ZM245.333 512C239.445 512 234.667 507.221 234.667 501.333V437.333C234.667 431.445 239.445 426.667 245.333 426.667C251.221 426.667 256 431.445 256 437.333V501.333C256 507.221 251.221 512 245.333 512ZM181.227 488.533C180.373 488.533 177.429 487.872 177.429 487.872C154.944 481.472 137.173 463.701 130.837 441.408C121.259 407.765 137.003 372.843 168.235 358.379C172.352 356.459 174.507 351.659 173.44 346.688C171.179 335.936 170.283 324.907 170.795 313.856C173.845 248.768 227.2 195.285 292.267 192.149C348.608 189.525 399.189 222.891 418.688 275.499C421.589 283.285 428.245 289.109 436.971 291.435C490.283 305.771 521.92 359.573 509.056 413.952C505.515 428.907 498.261 443.115 488.107 455.083C484.288 459.584 477.525 460.096 473.067 456.299C468.587 452.48 468.053 445.739 471.851 441.259C479.851 431.872 485.547 420.736 488.299 409.045C498.496 365.952 473.536 323.349 431.445 312.043C415.936 307.904 404.011 297.301 398.677 282.923C382.421 239.083 340.181 211.371 293.312 213.44C240 216.043 194.581 261.525 192.085 314.859C191.659 324.075 192.427 333.291 194.304 342.251C197.44 356.992 190.4 371.605 177.173 377.728C155.179 387.925 144.555 411.712 151.317 435.563C155.584 450.56 168.043 463.019 183.019 467.285C188.651 468.864 192.512 474.859 190.976 480.512C189.675 485.269 185.771 488.512 181.184 488.512L181.227 488.533ZM36.5013 309.525C32.832 309.525 29.248 307.605 27.264 304.192C24.2987 299.115 26.048 292.587 31.168 289.621L96.2133 251.968C90.5813 239.808 87.0827 226.731 85.888 213.312H10.6667C4.77867 213.312 0 208.533 0 202.645C0 196.757 4.77867 191.979 10.6667 191.979H85.824C86.1867 187.904 86.7413 183.808 87.5093 179.733C89.216 170.795 91.968 162.197 95.6373 154.069L30.4853 117.013C25.3653 114.091 23.5733 107.605 26.4747 102.464C29.376 97.344 35.8827 95.5733 41.024 98.4533L106.176 135.509C113.984 124.288 123.733 114.475 134.891 106.603L97.4293 41.7067C94.464 36.608 96.2133 30.08 101.333 27.136C106.411 24.1707 112.96 25.8987 115.904 31.04L153.387 95.936C161.429 92.224 169.92 89.4293 178.795 87.68C183.211 86.8053 187.605 86.1867 192 85.7813V10.6667C192 4.77867 196.779 0 202.667 0C208.555 0 213.333 4.77867 213.333 10.6667V85.7813C226.368 86.9333 238.976 90.2187 250.752 95.5093L287.552 30.1227C290.453 24.96 296.981 23.1893 302.08 26.0693C307.221 28.9493 309.035 35.456 306.133 40.5973L269.312 106.027C277.781 111.893 285.589 118.976 292.501 127.189C295.979 131.307 301.739 132.395 306.133 129.835L363.008 96.5333C368.128 93.6107 374.635 95.2747 377.621 100.352C380.608 105.429 378.901 111.979 373.803 114.965L316.907 148.267C303.445 156.139 286.613 152.811 276.181 140.949C248.896 109.973 206.293 104.064 182.933 108.651C173.568 110.507 122.005 130.069 108.501 183.765C104.491 199.68 107.776 233.045 128.96 264.171C132.267 269.035 132.117 275.413 127.616 279.189C123.072 282.944 116.373 282.347 112.597 277.845C110.592 275.456 108.693 272.981 106.901 270.464L41.8773 308.117C40.192 309.099 38.3573 309.547 36.5227 309.547L36.5013 309.525Z" fill="#1EEBB4"/>
</g>
<defs>
<clipPath id="clip0_1877_1670">
<rect width="512" height="512" fill="white"/>
</clipPath>
</defs>
</svg>
