<svg width="40" height="40" viewBox="0 0 512 512" fill="none" xmlns="http://www.w3.org/2000/svg">
<g clip-path="url(#clip0_1877_1665)">
<path d="M330.667 0H181.333C128.405 0 85.3333 43.072 85.3333 96V416C85.3333 468.928 128.405 512 181.333 512H330.667C383.595 512 426.667 468.928 426.667 416V96C426.667 43.072 383.595 0 330.667 0ZM315.883 21.3333L308.949 42.112C304.576 55.2107 292.373 64 278.592 64H233.429C219.648 64 207.445 55.2107 203.072 42.112L196.139 21.3333H315.883ZM405.333 416C405.333 457.173 371.84 490.667 330.667 490.667H181.333C140.16 490.667 106.667 457.173 106.667 416V96C106.667 57.3867 136.256 25.8773 173.888 22.08L182.805 48.8533C190.08 70.656 210.411 85.312 233.408 85.312H278.571C301.568 85.312 321.899 70.656 329.173 48.8533L338.091 22.08C375.723 25.8773 405.312 57.3653 405.312 96L405.333 416Z" fill="#1EEBB4"/>
<path d="M288 426.667H224C218.112 426.667 213.333 431.445 213.333 437.333C213.333 443.221 218.112 448 224 448H288C293.888 448 298.667 443.221 298.667 437.333C298.667 431.445 293.888 426.667 288 426.667Z" fill="#1EEBB4"/>
</g>
<defs>
<clipPath id="clip0_1877_1665">
<rect width="512" height="512" fill="white"/>
</clipPath>
</defs>
</svg>
